<?xml version="1.0" standalone="no"?>
<!DOCTYPE svg PUBLIC "-//W3C//DTD SVG 20010904//EN"
 "http://www.w3.org/TR/2001/REC-SVG-20010904/DTD/svg10.dtd">
<svg version="1.0" xmlns="http://www.w3.org/2000/svg"
 width="85.000000pt" height="85.000000pt" viewBox="0 0 85.000000 85.000000"
 preserveAspectRatio="xMidYMid meet">
<metadata>
Created by potrace 1.11, written by Peter Selinger 2001-2013
</metadata>
<g transform="translate(0.000000,85.000000) scale(0.100000,-0.100000)"
fill="#000000" stroke="none">
<path d="M0 425 l0 -425 425 0 425 0 0 425 0 425 -425 0 -425 0 0 -425z m630
140 c24 -22 35 -69 21 -92 -8 -14 -9 -11 -5 14 9 45 -38 93 -90 93 l-36 0 0
-126 0 -125 41 3 c75 5 80 66 8 79 l-34 6 36 2 c40 1 59 -13 59 -45 0 -35 -26
-54 -76 -54 l-44 0 0 136 0 137 50 -5 c28 -3 59 -13 70 -23z m-405 -127 c-27
-73 -53 -137 -58 -143 -6 -7 -8 -6 -6 1 44 125 104 283 107 279 2 -2 -17 -64
-43 -137z m139 10 c60 -164 61 -168 47 -148 -6 8 -29 68 -52 133 -23 64 -45
117 -50 117 -4 0 -17 -28 -28 -62 -12 -35 -26 -70 -32 -78 -9 -13 -10 -12 -5
2 24 76 60 168 65 168 4 0 29 -60 55 -132z m121 -11 l0 -142 43 -1 c24 -1 46
-5 50 -9 4 -3 -18 -5 -48 -3 l-55 3 -3 148 c-1 81 1 147 5 147 5 0 8 -64 8
-143z m116 103 c13 -8 19 -20 18 -43 -2 -27 -2 -28 -6 -7 -7 34 -20 48 -51 53
-24 4 -24 4 -4 6 13 0 32 -4 43 -9z m-252 -154 c17 -49 30 -91 27 -93 -2 -2
-17 33 -34 79 -17 46 -34 92 -38 103 -4 13 -4 17 3 10 5 -5 24 -50 42 -99z
m284 54 c34 -27 43 -70 22 -109 -8 -17 -17 -31 -19 -31 -3 0 -12 -3 -21 -6 -9
-4 -2 7 15 24 33 33 36 48 19 86 -12 25 -42 41 -89 49 -18 3 -15 5 11 6 23 0
46 -6 62 -19z m-349 -57 c-39 -4 -43 -7 -59 -49 -9 -25 -19 -43 -22 -40 -3 2
4 25 16 50 19 45 21 46 63 44 l43 -1 -41 -4z m29 -40 c-13 -2 -33 -2 -45 0
-13 2 -3 4 22 4 25 0 35 -2 23 -4z"/>
</g>
</svg>
